<?xml version="1.0" encoding="UTF-8"?>
<svg id="Layer_1" data-name="Layer 1" xmlns="http://www.w3.org/2000/svg" viewBox="0 0 147.61 132.85">
  <defs>
    <style>
      .cls-1 {
        fill: #73d1fe;
        fill-rule: evenodd;
      }
    </style>
  </defs>
  <path class="cls-1" d="M13.92,8.91c18.91-18.97,28.74-2.49,47.32,2.32,19,4.92,31.4-13.37,43.85-6.44,15.35,8.55,11.64,23.08,20.49,32.53,7.56,8.06,17.66,10.38,21.38,22.6,2.88,9.46-4.54,20.26-6.13,29.57-1.53,8.96.66,18.42-1.55,27.27-.81,3.22-2.62,6.5-5.18,8.45-9.41,7.17-26.84,7.21-37.63,5.6-4.84-.72-10.02-2.87-14.95-2.16-7.03,1.01-14.1,5.9-21.29,3.57-7-2.27-13.82-8.2-17-15.43-7.82-17.8-.71-36.24-7.33-49.57-3.72-7.49-11.07-10.67-16.18-16.67C.65,28.22-10.3,24.88,13.92,8.91"/>
</svg>